<?xml version="1.0" encoding="UTF-8"?>
<svg id="Calque_2" data-name="Calque 2" xmlns="http://www.w3.org/2000/svg" viewBox="0 0 100.49 100.49">
  <defs>
    <style>
      .cls-2, .cls-3 {
        stroke-width: 0px;
      }

      .cls-2 {
        fill: #c5603a;
      }

      .cls-3 {
        fill: #1d1d1b;
      }
    </style>
  </defs>
  <g id="Calque_1-2" data-name="Calque 1">
    <g>
      <path class="cls-2" d="m9.41,78.56c-1.78-1.78-2.67-4.02-2.67-6.71s.87-5.02,2.61-6.77,4-2.61,6.77-2.61,5.03.87,6.77,2.61c1.74,1.74,2.61,4,2.61,6.77s-.89,4.93-2.67,6.71c-1.78,1.78-4.02,2.67-6.71,2.67s-4.93-.89-6.71-2.67Z"/>
      <path class="cls-3" d="m43.62,79.33c-3.96-1.5-7.03-3.6-9.2-6.29-2.18-2.69-3.27-5.74-3.27-9.14v-1.19c0-.39.14-.73.42-1.01.28-.28.61-.42,1.01-.42h13.18c.39,0,.73.14,1.01.42.28.28.42.61.42,1.01v.12c0,1.74.97,3.23,2.91,4.45,1.94,1.23,4.37,1.84,7.3,1.84,2.69,0,4.87-.53,6.53-1.6,1.66-1.07,2.49-2.39,2.49-3.98,0-1.42-.71-2.49-2.14-3.21s-3.76-1.46-7-2.25c-3.72-.95-6.65-1.86-8.79-2.73-5.07-1.74-9.1-3.88-12.11-6.41-3.01-2.53-4.51-6.17-4.51-10.92,0-5.86,2.27-10.51,6.83-13.95,4.55-3.44,10.59-5.16,18.11-5.16,5.06,0,9.5.81,13.3,2.43,3.8,1.62,6.75,3.9,8.85,6.83,2.1,2.93,3.15,6.25,3.15,9.97,0,.4-.14.73-.42,1.01-.28.28-.61.42-1.01.42h-12.7c-.4,0-.73-.14-1.01-.42-.28-.28-.42-.61-.42-1.01,0-1.74-.89-3.21-2.67-4.39-1.78-1.19-4.14-1.78-7.06-1.78-2.61,0-4.75.47-6.41,1.42s-2.49,2.26-2.49,3.92.81,2.77,2.43,3.56c1.62.79,4.33,1.62,8.13,2.49.87.24,1.86.5,2.97.77,1.11.28,2.3.61,3.56,1.01,5.62,1.66,10.05,3.8,13.3,6.41,3.24,2.61,4.87,6.41,4.87,11.4,0,5.86-2.32,10.43-6.95,13.71-4.63,3.29-10.86,4.93-18.7,4.93-5.3,0-9.93-.75-13.89-2.26Z"/>
    </g>
  </g>
</svg>
