<?xml version="1.0" encoding="UTF-8"?>
<svg id="Calque_2" data-name="Calque 2" xmlns="http://www.w3.org/2000/svg" viewBox="0 0 820.27 200.4">
  <defs>
    <style>
      .cls-1 {
        stroke: #c4603a;
        stroke-linecap: round;
        stroke-linejoin: round;
        stroke-width: 1.5px;
      }

      .cls-1, .cls-2 {
        fill: #c4603a;
      }

      .cls-3 {
        opacity: .2;
      }

      .cls-2 {
        stroke-width: 0px;
      }
    </style>
  </defs>
  <g id="_Layer_" data-name="&amp;lt;Layer&amp;gt;">
    <g>
      <g class="cls-3">
        <path class="cls-1" d="m156.55,56.64H49.59c-13.23,0-25.25,5.42-33.96,14.13-8.27,8.27-13.56,19.52-14.08,31.94h-.05v96.19h108.95c13.23,0,25.26-5.42,33.97-14.12,8.26-8.27,13.56-19.52,14.08-31.94h.04V56.64h-2Zm-106.95,92.2c-12.13,0-23.16-4.97-31.15-12.95-7.55-7.55-12.4-17.83-12.91-29.18h104.91c12.13,0,23.16,4.96,31.15,12.95,7.55,7.55,12.4,17.84,12.91,29.19H49.59Z"/>
      </g>
      <g>
        <path class="cls-2" d="m1.5,199.65c-.41,0-.75-.34-.75-.75v-96.19c0-.1.02-.2.06-.29.57-12.12,5.64-23.54,14.29-32.18,9.25-9.25,21.5-14.35,34.49-14.35h108.95c.41,0,.75.34.75.75v96.19c0,.1-.02.19-.05.28-.57,12.12-5.64,23.54-14.29,32.19-9.25,9.25-21.5,14.34-34.5,14.34H1.5Zm108.95-5.49c11.54,0,22.41-4.52,30.62-12.73,7.5-7.5,11.97-17.36,12.64-27.84H49.59c-12.99,0-25.24-5.1-34.49-14.35-3.57-3.57-6.54-7.62-8.85-12.06v66.99h104.2ZM6.33,107.45c.66,10.51,5.14,20.39,12.65,27.9,8.21,8.21,19.08,12.73,30.61,12.73h104.12c-.66-10.51-5.13-20.39-12.65-27.91-8.21-8.21-19.09-12.73-30.62-12.73H6.33Zm104.12-5.49c13,0,25.25,5.1,34.5,14.35,3.57,3.57,6.54,7.62,8.85,12.06V61.38H49.59c-11.53,0-22.4,4.52-30.61,12.73-7.51,7.51-11.98,17.37-12.65,27.84h104.11Z"/>
        <path class="cls-2" d="m158.54,56.64v96.19h-.04c-.52,12.42-5.82,23.67-14.08,31.94-8.71,8.71-20.74,14.12-33.97,14.12H1.5v-96.19h.05c.52-12.42,5.81-23.68,14.08-31.94,8.71-8.71,20.74-14.13,33.96-14.13h108.95M5.54,102.71h104.9c13.23,0,25.26,5.42,33.97,14.13,4.24,4.24,7.7,9.27,10.13,14.84V60.63H49.59c-12.13,0-23.16,4.97-31.15,12.95-7.54,7.54-12.39,17.79-12.91,29.12m44.05,46.13h104.91c-.51-11.35-5.36-21.63-12.91-29.19-7.99-7.99-19.02-12.95-31.15-12.95H5.54c.51,11.35,5.36,21.63,12.91,29.18,7.99,7.99,19.02,12.95,31.15,12.95M5.5,194.91h104.95c12.13,0,23.16-4.97,31.15-12.95,7.54-7.54,12.39-17.79,12.91-29.12H49.59c-13.23,0-25.25-5.42-33.96-14.13-4.24-4.24-7.7-9.27-10.13-14.84v71.04M158.54,55.14H49.59c-13.19,0-25.63,5.17-35.02,14.57C5.81,78.46.67,90.01.06,102.29c-.04.13-.06.27-.06.42v96.19c0,.83.67,1.5,1.5,1.5h108.95c13.19,0,25.64-5.17,35.03-14.56,8.76-8.76,13.91-20.33,14.51-32.6.04-.13.06-.27.06-.41V56.64c0-.83-.67-1.5-1.5-1.5h0ZM7.14,101.21c.83-10,5.18-19.38,12.37-26.56,8.07-8.07,18.75-12.51,30.08-12.51h103.46v63.35c-2.1-3.52-4.64-6.78-7.57-9.71-9.39-9.39-21.83-14.57-35.03-14.57H7.14Zm0,6.99h103.31c11.33,0,22.02,4.44,30.09,12.51,7.19,7.2,11.55,16.6,12.37,26.63H49.59c-11.33,0-22.01-4.44-30.08-12.52-7.19-7.19-11.55-16.6-12.37-26.62h0Zm-.14,85.21v-63.35c2.1,3.52,4.64,6.77,7.57,9.71,9.39,9.39,21.83,14.57,35.02,14.57h103.31c-.83,10-5.19,19.38-12.37,26.56-8.07,8.07-18.76,12.51-30.09,12.51H7Z"/>
      </g>
    </g>
    <path class="cls-2" d="m208.59,186.99c-8.09-5.07-14.03-13.46-17.81-25.16-.52-1.55-.26-2.41.77-2.58l3.1-1.03c1.2-.52,2.06-.17,2.58,1.03,3.44,10.32,8.65,17.77,15.61,22.33,6.97,4.56,15.87,6.84,26.71,6.84,12.9,0,22.58-2.67,29.04-8,6.45-5.33,9.68-12.73,9.68-22.2,0-7.4-1.59-13.12-4.77-17.16-3.19-4.04-7.4-6.92-12.65-8.65-5.25-1.72-12-3.01-20.26-3.87-10.5-1.2-18.84-2.67-25.04-4.39-6.19-1.72-11.36-5.07-15.49-10.07-4.13-4.99-6.19-12.47-6.19-22.45,0-11.36,3.78-20.22,11.36-26.58,7.57-6.36,18.41-9.55,32.52-9.55,12.73,0,22.71,2.41,29.94,7.23,7.23,4.82,12.39,11.79,15.49,20.91.52,1.38.34,2.32-.52,2.84l-2.58.77c-1.21.52-2.06.26-2.58-.77-3.1-8.26-7.66-14.45-13.68-18.58-6.02-4.13-14.71-6.19-26.07-6.19s-21.03,2.58-27.49,7.74c-6.45,5.16-9.68,12.56-9.68,22.2,0,8.26,1.72,14.5,5.16,18.71,3.44,4.22,7.83,7.01,13.16,8.39,5.33,1.38,12.9,2.58,22.71,3.61,9.12.86,16.78,2.37,22.97,4.52,6.19,2.15,11.18,5.68,14.97,10.58,3.78,4.9,5.68,11.83,5.68,20.78,0,11.53-3.83,20.48-11.49,26.84-7.66,6.36-19.06,9.55-34.2,9.55-12.56,0-22.89-2.54-30.97-7.61Z"/>
    <path class="cls-2" d="m324.47,188.93V2.06c0-1.38.6-2.06,1.81-2.06h3.36c1.2,0,1.81.69,1.81,2.06v117.69h34.58l40.26-59.1c.52-.69,1.03-1.12,1.55-1.29.52-.17,1.2-.26,2.06-.26h2.84c1.89,0,2.32.77,1.29,2.32l-41.04,59.62c5.5,1.03,9.94,3.19,13.29,6.45,3.36,3.27,6.32,7.83,8.9,13.68l21.16,47.75c.52,1.38.08,2.06-1.29,2.06h-2.84c-1.03,0-1.77-.08-2.19-.26-.43-.17-.82-.6-1.16-1.29l-19.87-45.17c-2.75-6.36-6.07-10.97-9.94-13.81-3.87-2.84-8.99-4.26-15.36-4.26h-32.26v62.72c0,1.38-.6,2.06-1.81,2.06h-3.36c-1.21,0-1.81-.69-1.81-2.06Z"/>
    <path class="cls-2" d="m459.58,182.86c-9.03-7.83-13.55-18.54-13.55-32.13v-51.36c0-13.42,4.52-24.09,13.55-32,9.03-7.91,20.95-11.87,35.75-11.87s26.97,3.96,36,11.87c9.03,7.92,13.55,18.58,13.55,32v51.36c0,13.59-4.48,24.31-13.42,32.13-8.95,7.83-20.99,11.74-36.13,11.74s-26.71-3.91-35.75-11.74Zm5.16-4.9c7.83,6.8,18.02,10.19,30.58,10.19s23.23-3.36,30.97-10.07c7.74-6.71,11.61-15.74,11.61-27.1v-51.88c0-11.36-3.87-20.39-11.61-27.1-7.74-6.71-18.07-10.07-30.97-10.07s-22.97,3.35-30.71,10.07c-7.74,6.71-11.61,15.74-11.61,27.1v51.88c0,11.19,3.91,20.18,11.74,26.97Z"/>
    <path class="cls-2" d="m586.69,189.18v-111.5c0-3.96.6-6.88,1.81-8.78,1.2-1.89,3.52-3.61,6.97-5.16,12.04-5.5,25.81-8.26,41.3-8.26,29.59,0,44.39,16.43,44.39,49.3v84.4c0,1.21-.6,1.81-1.81,1.81h-3.35c-1.21,0-1.81-.6-1.81-1.81v-83.88c0-14.28-3.1-25.08-9.29-32.39-6.19-7.31-15.83-10.97-28.91-10.97-7.57,0-14.54.73-20.91,2.19-6.37,1.46-11.61,3.23-15.74,5.29-2.24,1.21-3.74,2.54-4.52,4-.77,1.46-1.16,3.31-1.16,5.55v110.21c0,.69-.13,1.16-.39,1.42-.26.26-.73.39-1.42.39h-3.36c-1.21,0-1.81-.6-1.81-1.81Z"/>
    <path class="cls-2" d="m733.81,181.31c-8.09-8.86-12.13-21.12-12.13-36.78v-35.62c0-16.69,4.21-29.77,12.65-39.23,8.43-9.46,20.73-14.2,36.91-14.2s28.39,4.73,36.65,14.2c8.26,9.46,12.39,22.45,12.39,38.97v12.9c0,2.75-1.38,4.13-4.13,4.13h-87.75v19.36c0,13.42,3.52,24,10.58,31.75,7.05,7.74,17.29,11.61,30.71,11.61,11.18,0,20.17-2.36,26.97-7.1,6.8-4.73,12.26-11.57,16.39-20.52.69-1.2,1.63-1.46,2.84-.77l2.32,1.29c.52.35.86.73,1.03,1.16.17.43.08.9-.26,1.42-9.46,20.48-25.9,30.71-49.3,30.71-15.83,0-27.79-4.43-35.88-13.29Zm79.75-61.3v-11.61c0-14.45-3.57-25.85-10.71-34.2-7.14-8.34-17.68-12.52-31.62-12.52s-24.56,4.17-31.87,12.52c-7.32,8.35-10.97,19.74-10.97,34.2v11.61h85.17Z"/>
    <g>
      <path class="cls-2" d="m458.95,198.2c-.42,0-.84-.1-1.21-.3-.62-.32-1.09-.87-1.3-1.54s-.15-1.38.17-2.01l73.02-141.04c.46-.88,1.35-1.42,2.34-1.42.42,0,.84.1,1.21.3.62.32,1.09.87,1.3,1.54s.15,1.38-.17,2.01l-73.02,141.04c-.46.88-1.35,1.42-2.34,1.42Z"/>
      <path class="cls-2" d="m531.97,52.54c.31,0,.62.07.91.22.97.5,1.35,1.7.85,2.67l-73.02,141.04c-.35.68-1.05,1.07-1.76,1.07-.31,0-.62-.07-.91-.22-.97-.5-1.35-1.7-.85-2.67l73.02-141.04c.35-.68,1.05-1.07,1.76-1.07m0-1.3c-1.23,0-2.35.68-2.92,1.77l-73.02,141.04c-.83,1.61-.2,3.59,1.41,4.43.47.24.99.37,1.51.37,1.23,0,2.35-.68,2.92-1.77l73.02-141.04c.83-1.61.2-3.59-1.41-4.43-.46-.24-.99-.37-1.51-.37h0Z"/>
    </g>
  </g>
</svg>