<?xml version="1.0" encoding="UTF-8"?>
<svg id="Calque_2" data-name="Calque 2" xmlns="http://www.w3.org/2000/svg" viewBox="0 0 283.25 71.1">
  <defs>
    <style>
      .cls-1 {
        fill: #c5603a;
      }

      .cls-1, .cls-2 {
        stroke-width: 0px;
      }

      .cls-2 {
        fill: #1d1d1b;
      }
    </style>
  </defs>
  <g id="Calque_1-2" data-name="Calque 1">
    <g>
      <path class="cls-1" d="m2.26,68.44c-1.51-1.51-2.26-3.4-2.26-5.67s.74-4.25,2.21-5.72,3.38-2.21,5.72-2.21,4.25.74,5.72,2.21c1.47,1.47,2.21,3.38,2.21,5.72s-.75,4.17-2.26,5.67c-1.51,1.51-3.4,2.26-5.67,2.26s-4.17-.75-5.67-2.26Z"/>
      <path class="cls-2" d="m36.05,69.09c-3.35-1.27-5.94-3.05-7.78-5.32-1.84-2.28-2.76-4.85-2.76-7.73v-1c0-.33.12-.62.35-.85.23-.23.52-.35.85-.35h11.15c.33,0,.62.12.85.35.23.24.35.52.35.85v.1c0,1.47.82,2.73,2.46,3.77,1.64,1.04,3.7,1.56,6.18,1.56,2.27,0,4.12-.45,5.52-1.36,1.41-.9,2.11-2.02,2.11-3.36,0-1.21-.6-2.11-1.81-2.71s-3.18-1.24-5.92-1.91c-3.15-.8-5.62-1.57-7.43-2.31-4.29-1.47-7.7-3.28-10.24-5.42-2.55-2.14-3.82-5.22-3.82-9.24,0-4.95,1.92-8.89,5.77-11.8,3.85-2.91,8.95-4.37,15.31-4.37,4.28,0,8.03.69,11.25,2.06,3.21,1.37,5.71,3.3,7.48,5.77,1.77,2.48,2.66,5.29,2.66,8.44,0,.34-.12.62-.35.85-.24.24-.52.35-.85.35h-10.75c-.34,0-.62-.12-.85-.35-.24-.23-.35-.52-.35-.85,0-1.47-.75-2.71-2.26-3.72-1.51-1-3.5-1.51-5.98-1.51-2.21,0-4.02.4-5.42,1.21s-2.11,1.91-2.11,3.31.69,2.34,2.06,3.01c1.37.67,3.67,1.37,6.88,2.11.74.2,1.57.42,2.51.65.94.24,1.94.52,3.01.85,4.75,1.41,8.5,3.21,11.25,5.42,2.74,2.21,4.12,5.42,4.12,9.64,0,4.96-1.96,8.82-5.88,11.6-3.92,2.78-9.19,4.17-15.82,4.17-4.49,0-8.4-.64-11.75-1.91Z"/>
      <path class="cls-2" d="m77.98,69.95c-.24-.23-.35-.52-.35-.85V1.21c0-.33.12-.62.35-.85.23-.23.52-.35.85-.35h11.75c.33,0,.62.12.85.35.23.24.35.52.35.85v33.84c0,.2.07.32.2.35.13.03.27-.02.4-.15l13.66-15.87c.47-.47.97-.7,1.51-.7h13.36c.67,0,1,.24,1,.7,0,.2-.1.47-.3.8l-12.75,16.17c-.13.27-.17.5-.1.7l14.96,31.83c.13.27.2.47.2.6,0,.54-.37.8-1.1.8h-12.35c-.67,0-1.14-.3-1.41-.9l-9.94-23.5c-.07-.13-.19-.22-.35-.25-.17-.03-.29.02-.35.15l-6.43,8.03c-.14.27-.2.47-.2.6v14.66c0,.34-.12.62-.35.85-.24.24-.52.35-.85.35h-11.75c-.34,0-.62-.12-.85-.35Z"/>
      <path class="cls-2" d="m134.87,66.68c-4.02-2.95-6.76-6.96-8.23-12.05-.94-3.15-1.41-6.56-1.41-10.24,0-3.95.47-7.5,1.41-10.65,1.54-4.95,4.32-8.84,8.33-11.65,4.02-2.81,8.84-4.22,14.46-4.22s10.18,1.39,14.06,4.17c3.88,2.78,6.63,6.65,8.24,11.6,1.07,3.35,1.61,6.86,1.61,10.54s-.47,7-1.41,10.14c-1.47,5.22-4.2,9.32-8.18,12.3-3.98,2.98-8.79,4.47-14.41,4.47s-10.44-1.47-14.46-4.42Zm20.08-9.74c1.54-1.34,2.64-3.18,3.31-5.52.54-2.14.8-4.48.8-7.03,0-2.81-.27-5.19-.8-7.13-.74-2.28-1.88-4.05-3.41-5.32-1.54-1.27-3.42-1.91-5.62-1.91s-4.17.64-5.67,1.91c-1.51,1.27-2.6,3.05-3.26,5.32-.54,1.61-.8,3.98-.8,7.13s.23,5.36.7,7.03c.67,2.34,1.79,4.18,3.36,5.52,1.57,1.34,3.5,2.01,5.77,2.01s4.08-.67,5.62-2.01Z"/>
      <path class="cls-2" d="m222.34,22.8c3.28,3.28,4.92,7.73,4.92,13.36v32.94c0,.34-.12.62-.35.85s-.52.35-.85.35h-11.75c-.34,0-.62-.12-.85-.35-.24-.23-.35-.52-.35-.85v-30.03c0-2.68-.75-4.85-2.26-6.53-1.51-1.67-3.5-2.51-5.98-2.51s-4.47.84-5.97,2.51c-1.51,1.67-2.26,3.85-2.26,6.53v30.03c0,.34-.12.62-.35.85s-.52.35-.85.35h-11.75c-.34,0-.62-.12-.85-.35-.24-.23-.35-.52-.35-.85V19.88c0-.33.12-.62.35-.85s.52-.35.85-.35h11.75c.33,0,.62.12.85.35.23.24.35.52.35.85v3.51c0,.2.07.34.2.4.13.07.23.04.3-.1,2.74-3.88,6.83-5.83,12.25-5.83s9.67,1.64,12.96,4.92Z"/>
      <path class="cls-2" d="m283.2,47.7c-.07.8-.5,1.21-1.3,1.21h-31.03c-.4,0-.54.17-.4.5.2,1.34.57,2.68,1.1,4.02,1.74,3.75,5.29,5.62,10.65,5.62,4.28-.07,7.67-1.81,10.14-5.22.27-.4.57-.6.9-.6.2,0,.43.13.7.4l7.23,7.13c.33.34.5.64.5.9,0,.13-.13.4-.4.8-2.21,2.75-5.06,4.87-8.54,6.38-3.48,1.51-7.3,2.26-11.45,2.26-5.76,0-10.63-1.31-14.61-3.92-3.98-2.61-6.85-6.26-8.59-10.95-1.41-3.35-2.11-7.73-2.11-13.16,0-3.68.5-6.93,1.51-9.74,1.54-4.75,4.23-8.54,8.08-11.35,3.85-2.81,8.42-4.22,13.71-4.22,6.69,0,12.07,1.94,16.12,5.83,4.05,3.88,6.51,9.07,7.38,15.57.4,2.54.54,5.39.4,8.54Zm-32.14-11.75c-.27.87-.5,1.94-.7,3.21,0,.34.17.5.5.5h17.37c.4,0,.54-.17.4-.5-.33-1.94-.5-2.88-.5-2.81-.6-2.01-1.66-3.57-3.16-4.67-1.51-1.1-3.36-1.66-5.57-1.66-4.22,0-7,1.98-8.34,5.92Z"/>
      <rect class="cls-2" x="144.62" y="21.55" width="9.32" height="45.88" rx=".8" ry=".8" transform="translate(75.18 -92.53) rotate(45)"/>
    </g>
  </g>
</svg>